<?xml version="1.0" encoding="UTF-8"?><svg id="Layer_1" xmlns="http://www.w3.org/2000/svg" viewBox="0 0 16 16"><path fill="#FFFFFF" d="M2.75,0c-.42,0-.75,.33-.75,.75,0,1.22,.73,1.86,1.22,2.28l.03,.03c.51,.44,.74,.68,.74,1.18,0,.42,.33,.75,.75,.75s.75-.33,.75-.75c0-1.22-.73-1.86-1.22-2.28l-.03-.03c-.51-.44-.74-.68-.74-1.18,0-.42-.33-.75-.75-.75ZM1,6c-.55,0-1,.45-1,1v6c0,1.66,1.34,3,3,3h6c1.66,0,3-1.34,3-3h.5c1.93,0,3.5-1.57,3.5-3.5s-1.57-3.5-3.5-3.5H1Zm11,2h.5c.83,0,1.5,.67,1.5,1.5s-.67,1.5-1.5,1.5h-.5v-3ZM7,.75c0-.42-.33-.75-.75-.75s-.75,.33-.75,.75c0,1.22,.73,1.86,1.22,2.28l.03,.03c.51,.44,.74,.68,.74,1.18,0,.42,.33,.75,.75,.75s.75-.33,.75-.75c0-1.22-.73-1.86-1.22-2.28l-.03-.03c-.51-.44-.74-.68-.74-1.18Z"/></svg>